<?xml version="1.0" standalone="no"?>
<!DOCTYPE svg PUBLIC "-//W3C//DTD SVG 20010904//EN"
 "http://www.w3.org/TR/2001/REC-SVG-20010904/DTD/svg10.dtd">
<svg version="1.0" xmlns="http://www.w3.org/2000/svg"
 width="847.000000pt" height="1071.000000pt" viewBox="0 0 847.000000 1071.000000"
 preserveAspectRatio="xMidYMid meet">

<g transform="translate(0.000000,1071.000000) scale(0.100000,-0.100000)"
fill="#000000" stroke="none">
<path d="M620 10152 c0 -6 46 -91 101 -189 56 -98 121 -212 144 -253 41 -73
117 -206 285 -500 159 -279 216 -378 345 -603 l130 -227 1641 0 c903 0 1655
-3 1672 -6 28 -6 40 -23 128 -183 231 -419 316 -572 568 -1027 146 -264 266
-486 266 -493 0 -7 -82 -158 -181 -334 -100 -177 -240 -427 -312 -554 l-130
-233 -1013 0 c-638 0 -1014 -4 -1014 -10 0 -5 161 -292 359 -637 757 -1326
1570 -2751 1613 -2828 25 -44 68 -120 96 -169 29 -49 52 -91 52 -93 0 -2 20
-36 43 -76 24 -39 59 -99 77 -132 18 -33 57 -100 85 -150 29 -49 130 -227 225
-395 95 -168 178 -311 185 -318 8 -9 222 -12 1028 -10 l1018 3 -69 120 c-89
155 -548 964 -662 1165 -147 261 -595 1051 -745 1315 -78 138 -161 285 -184
327 l-42 76 72 134 c39 73 193 356 341 628 149 272 314 576 368 675 160 294
334 614 380 700 23 44 81 150 128 235 47 85 97 178 112 205 15 28 66 121 114
207 47 86 86 159 86 162 0 4 -44 86 -99 184 -244 439 -726 1312 -897 1624 -29
54 -99 179 -154 278 -55 99 -125 224 -154 278 -30 53 -98 176 -151 272 -137
247 -294 532 -382 693 l-75 137 -2683 0 c-1476 0 -2690 3 -2699 6 -9 3 -16 1
-16 -4z"/>
</g>
</svg>
