<?xml version="1.0" encoding="UTF-8"?>
<!DOCTYPE svg PUBLIC "-//W3C//DTD SVG 1.1//EN" "http://www.w3.org/Graphics/SVG/1.1/DTD/svg11.dtd">
<!-- Creator: CorelDRAW -->
<svg xmlns="http://www.w3.org/2000/svg" xml:space="preserve" width="26.6667in" height="15in" version="1.1" style="shape-rendering:geometricPrecision; text-rendering:geometricPrecision; image-rendering:optimizeQuality; fill-rule:evenodd; clip-rule:evenodd"
viewBox="0 0 26666.66 15000"
 xmlns:xlink="http://www.w3.org/1999/xlink"
 xmlns:xodm="http://www.corel.com/coreldraw/odm/2003">
 <defs>
  <style type="text/css">
   <![CDATA[
    .fil0 {fill:black;fill-rule:nonzero}
   ]]>
  </style>
 </defs>
 <g id="Layer_x0020_1">
  <metadata id="CorelCorpID_0Corel-Layer"/>
  <polygon class="fil0" points="8054.99,9723.89 9928.67,6278.39 7690.65,2231.93 1393,2231.14 2569.25,4290.21 6472.77,4300.61 7576.15,6299.21 6837.1,7610.8 4463.75,7610.8 7669.83,13231.85 10043.18,13231.85 "/>
  <polygon class="fil0" points="17593.94,13231.85 10391,13231.85 10391,11619.46 17593.94,11619.46 "/>
  <polygon class="fil0" points="13986.94,3096.43 13992.02,2273.98 10391.01,8383.18 13986.94,8391.7 "/>
  <polygon class="fil0" points="18696.92,2217 18696.92,13228.42 26029.75,2192.32 "/>
  <polygon class="fil0" points="17593.94,10772.46 10391,10772.46 10391,9160.07 17593.94,9160.07 "/>
  <polygon class="fil0" points="13986.55,3094.41 13981.46,2271.96 17582.48,8381.16 13986.55,8389.69 "/>
 </g>
</svg>
